<svg xmlns="http://www.w3.org/2000/svg" width="70" height="69" viewBox="0 0 70 69" fill="none">
  <path d="M39.145 51H30.145C31.745 54.3945 33.9784 55.0767 34.895 54.9935C37.495 54.9935 38.8117 52.3312 39.145 51Z" fill="white"/>
  <path d="M53.145 47H16.145C18.0211 44.871 19.7061 41.3226 20.314 39.8145C21.5647 37.2597 21.8774 30.4113 21.8774 27.3065C22.9197 18.1516 29.0863 16.3952 32.0394 16.6613C31.8309 14.5323 33.5159 14 34.3845 14C36.2605 14 36.7295 15.7742 36.7295 16.6613C44.0253 17.3 46.5441 24.0242 46.8915 27.3065C46.0577 32.629 47.2389 37.8629 47.9338 39.8145C49.6014 43.6468 52.1028 46.2016 53.145 47Z" stroke="white" stroke-width="2" stroke-linecap="round"/>
</svg>